<svg width="68" height="22" viewBox="0 0 68 22" fill="none" xmlns="http://www.w3.org/2000/svg">
<g clip-path="url(#clip0_0_27)">
<path d="M0 0H14.7156V7.28567H7.3578L0 0ZM0 7.28567H7.3578L14.7156 14.5713H0V7.28567ZM0 14.5713H7.3578V21.857L0 14.5713Z" fill="black"/>
<path d="M23.0187 5.74768H28.967V7.61935H25.2701V10.2203H28.967V12.0507H25.2701V15.381H23.0187V5.74768ZM30.19 8.74768H32.3165V10.1377C32.4276 9.66001 32.6548 9.29335 32.9975 9.03668C33.349 8.77035 33.7391 8.63768 34.165 8.63768C34.3875 8.63768 34.573 8.65635 34.7207 8.69268V10.647C34.5087 10.6217 34.2952 10.608 34.0815 10.6057C33.4977 10.6057 33.0581 10.7933 32.7612 11.1697C32.4653 11.5367 32.3165 12.087 32.3165 12.8213V15.381H30.191V8.74768H30.19ZM38.0777 15.56C37.4293 15.56 36.8637 15.4083 36.382 15.1057C35.9094 14.803 35.5337 14.3733 35.2981 13.867C35.0479 13.3353 34.922 12.7337 34.922 12.0643C34.922 11.4037 35.0527 10.807 35.3119 10.2753C35.5549 9.76168 35.9407 9.32735 36.4238 9.02301C36.9142 8.72035 37.4751 8.56868 38.1056 8.56868C38.5779 8.56868 39 8.67001 39.3703 8.87168C39.7406 9.07401 40.0187 9.34935 40.2042 9.69735V8.74768H42.3165V15.381H40.2042V14.445C40.0187 14.7753 39.7315 15.0457 39.3424 15.257C38.9532 15.4613 38.5183 15.5653 38.0777 15.56ZM38.6893 13.812C39.1986 13.812 39.5925 13.647 39.8706 13.3167C40.1486 12.9863 40.2877 12.5687 40.2877 12.0643C40.2877 11.569 40.1486 11.156 39.8706 10.8257C39.5925 10.4953 39.1986 10.3303 38.6893 10.3303C38.2069 10.3303 37.8184 10.4907 37.5219 10.812C37.2347 11.1333 37.091 11.5503 37.091 12.0643C37.091 12.5783 37.2347 13 37.5219 13.3303C37.8184 13.6517 38.2076 13.812 38.6893 13.812ZM43.8038 8.74768H45.9303V9.71101C46.0791 9.37101 46.3195 9.09568 46.6527 8.88535C46.9961 8.67501 47.3943 8.56868 47.8481 8.56868C48.9045 8.56868 49.6043 8.97668 49.9467 9.79368C50.1352 9.42335 50.4301 9.11701 50.7947 8.91301C51.1845 8.68068 51.6322 8.56168 52.087 8.56868C53.6715 8.56868 54.4636 9.46735 54.4636 11.266V15.381H52.3233V11.6513C52.3233 11.2023 52.2398 10.872 52.0732 10.6607C51.9062 10.45 51.6561 10.344 51.3225 10.344C50.9613 10.344 50.6832 10.468 50.4887 10.7157C50.2941 10.9543 50.1968 11.3713 50.1968 11.968V15.381H48.0565V11.6377C48.0565 11.1883 47.9733 10.8623 47.8064 10.6607C47.6495 10.45 47.4034 10.344 47.0705 10.344C46.6995 10.344 46.4167 10.468 46.2222 10.7157C46.0276 10.9543 45.9303 11.3713 45.9303 11.968V15.381H43.8045V8.74768H43.8038ZM62.452 11.7203C62.452 12.0043 62.4331 12.312 62.3954 12.6423H57.4486C57.4674 13.0737 57.6152 13.4033 57.8933 13.6333C58.1713 13.8623 58.5473 13.9773 59.019 13.9773C59.6771 13.9773 60.0942 13.7797 60.2699 13.3853H62.3547C62.2523 14.037 61.8911 14.564 61.2704 14.968C60.659 15.3623 59.9083 15.56 59.019 15.56C57.8704 15.56 56.9668 15.2523 56.3087 14.6377C55.6604 14.0227 55.3359 13.1653 55.3359 12.0643C55.3359 11.3487 55.484 10.7293 55.7805 10.2063C56.067 9.68401 56.5087 9.26135 57.0453 8.99535C57.5923 8.71135 58.2269 8.56868 58.9503 8.56868C59.6353 8.56868 60.2419 8.70168 60.7701 8.96801C61.3074 9.23435 61.7201 9.60568 62.0069 10.0827C62.3038 10.5603 62.452 11.106 62.452 11.7203ZM60.3524 11.335C60.3433 10.8947 60.2184 10.5593 59.977 10.3303C59.7367 10.1013 59.3886 9.98635 58.9348 9.98635C58.481 9.98635 58.1198 10.11 57.8508 10.358C57.5916 10.5967 57.4573 10.922 57.4476 11.335H60.3524ZM63.3895 8.74768H65.516V10.1377C65.6271 9.66001 65.8543 9.29335 66.197 9.03668C66.5296 8.77735 66.941 8.63668 67.3644 8.63768C67.5866 8.63768 67.7724 8.65635 67.9202 8.69268V10.647C67.7081 10.6217 67.4947 10.608 67.281 10.6057C66.6972 10.6057 66.2576 10.7933 65.9607 11.1697C65.6638 11.5367 65.516 12.087 65.516 12.8213V15.381H63.3895V8.74768Z" fill="black"/>
</g>
<defs>
<clipPath id="clip0_0_27">
<rect width="68" height="22" fill="white"/>
</clipPath>
</defs>
</svg>
